<svg data-name="Layer 1" xmlns="http://www.w3.org/2000/svg" viewBox="0 0 300 300"><title>OmniGraffle</title><path d="M80.46,198.13A24,24,0,1,0,95,205L94.92,205l11.29-23.83a36.08,36.08,0,0,0,25.25-3.65l29.5,33a24,24,0,1,0,11.92-10.67l-29.5-33a35.73,35.73,0,0,0,4.64-9l50.61,5.62a24,24,0,1,0,1.76-15.9l-50.62-5.62a35.94,35.94,0,0,0-3.26-11.4l30.68-24.22a24,24,0,1,0-9.91-12.56L136.59,118a36,36,0,0,0-31.95-6.74l-9-17a24,24,0,1,0-14.14,7.49l9,17q-1,.87-2,1.82a36,36,0,0,0,0,50.91,36.38,36.38,0,0,0,3.2,2.84Z" fill="#4fda87"/></svg>